<?xml version="1.0" encoding="UTF-8" standalone="no"?>
<!-- Created with Inkscape (http://www.inkscape.org/) -->

<svg
   xmlns:dc="http://purl.org/dc/elements/1.1/"
   xmlns:cc="http://creativecommons.org/ns#"
   xmlns:rdf="http://www.w3.org/1999/02/22-rdf-syntax-ns#"
   xmlns:svg="http://www.w3.org/2000/svg"
   xmlns="http://www.w3.org/2000/svg"
   xmlns:sodipodi="http://sodipodi.sourceforge.net/DTD/sodipodi-0.dtd"
   xmlns:inkscape="http://www.inkscape.org/namespaces/inkscape"
   version="1.1"
   id="svg815"
   xml:space="preserve"
   width="1056"
   height="816"
   viewBox="0 0 1056 816"
   sodipodi:docname="black-dots-freesvg-org.svg"
   inkscape:version="0.92.4 (5da689c313, 2019-01-14)"><metadata
     id="metadata821"><rdf:RDF><cc:Work
         rdf:about=""><dc:format>image/svg+xml</dc:format><dc:type
           rdf:resource="http://purl.org/dc/dcmitype/StillImage" /><dc:title></dc:title></cc:Work></rdf:RDF></metadata><defs
     id="defs819"><clipPath
       clipPathUnits="userSpaceOnUse"
       id="clipPath831"><path
         d="M 0,612 H 792 V 0 H 0 Z"
         id="path829"
         inkscape:connector-curvature="0" /></clipPath></defs><sodipodi:namedview
     pagecolor="#ffffff"
     bordercolor="#666666"
     borderopacity="1"
     objecttolerance="10"
     gridtolerance="10"
     guidetolerance="10"
     inkscape:pageopacity="0"
     inkscape:pageshadow="2"
     inkscape:window-width="1920"
     inkscape:window-height="1018"
     id="namedview817"
     showgrid="false"
     inkscape:zoom="1.0404412"
     inkscape:cx="528"
     inkscape:cy="408"
     inkscape:window-x="-8"
     inkscape:window-y="-8"
     inkscape:window-maximized="1"
     inkscape:current-layer="g823" /><g
     id="g823"
     inkscape:groupmode="layer"
     inkscape:label="halftone-77-publicdomainvectors.org [Converted]"
     transform="matrix(1.3333333,0,0,-1.3333333,0,816)"><g
       id="g825"><g
         id="g827"
         clip-path="url(#clipPath831)"><path
           d="m 598.415,448.029 c -4.475,1.528 -8.147,6.494 -1.473,2.878 3.974,-2.372 3.269,-3.496 1.473,-2.878 m -20.594,27.514 c -4.155,1.479 -7.237,5.648 -1.152,2.376 3.602,-2.123 2.82,-2.973 1.152,-2.376 M 694.874,322.327 c -2.916,-3.674 -20.88,14.972 -8.115,8.29 4.866,-2.561 9.012,-7.134 8.115,-8.29 m 41.406,-56.358 c 14.55,-8.96 3.517,-13.604 -4.556,-1.134 -2.277,3.525 -0.538,4.26 4.556,1.134 M 621.013,418.84 c 9.697,-5.636 -0.519,-5.52 -4.017,0.313 -0.994,1.666 0.614,1.663 4.017,-0.313 m 30.273,-39.783 c 11.44,-7.665 -2.07,-6.18 -5.788,1.58 0.09,0.688 2.984,0.374 5.788,-1.58 m -97.907,119.181 c -0.212,0.29 -0.424,0.584 -0.631,0.876 0.577,-0.239 1.15,-0.483 1.73,-0.718 0.892,-0.901 0.527,-0.956 -1.099,-0.158 m 10.356,-26.146 c -4.422,1.546 -7.46,5.986 -1.069,2.538 3.763,-2.244 2.847,-3.159 1.069,-2.538 m -17.104,24.674 c -4.11,1.487 -6.671,5.234 -0.828,2.104 3.432,-2.01 2.479,-2.703 0.828,-2.104 m 65.874,-90.767 c -1.07,-3.109 -15.005,7.055 -10.117,7.345 1.519,-0.767 3.79,-1.122 4.823,-2.155 2.496,-1.296 4.07,-3.131 5.294,-5.19 M 792.724,133.893 c -1.75,2.069 -3.126,4.427 -3.689,6.908 -0.345,1.524 0.808,2.098 3.689,0.928 z m -65.386,105.764 c 17.061,-12.483 0.148,-14.505 -7.645,1.267 -0.174,1.539 3.447,1.947 7.645,-1.267 M 582.557,446.033 c 9.185,-5.313 -1.426,-4.632 -4.126,0.49 -0.764,1.468 0.905,1.375 4.126,-0.49 m 91.98,-132.227 c 17.895,-9.129 4.302,-16.407 -4.756,-1.611 -2.211,3.643 0.29,3.889 4.756,1.611 m -38.14,54.824 c 15.51,-8.481 1.367,-11.619 -5.249,-0.558 -1.519,2.545 -1.104,4.026 5.249,0.558 M 533.129,494.005 c -12.062,4.313 -1.701,5.192 0,0 M 725.582,197.006 c 1.046,-10.275 -24.336,11.21 -18.272,15.326 2.492,-1.286 5.639,-0.845 7.698,-3.241 4.115,-2.228 7.476,-6.669 10.574,-12.085 M 622.046,347.173 c -8.203,4.868 -11.189,13.184 -2.78,9.453 13.145,-5.85 14.358,-16.306 2.78,-9.453 M 792.724,75.42 c -4.427,3.149 -8.914,8.303 -10.042,14.213 -0.409,2.136 1.308,2.892 5.493,0.843 1.781,-0.874 3.275,-1.734 4.549,-2.587 z M 547.409,471.045 c 8.809,-5.744 -4.202,-2.946 -5.253,1.693 0.324,0.351 3.119,-0.238 5.253,-1.693 m 16.444,-33.119 c -1.937,1.43 -3.481,3.798 -3.353,4.707 2.436,1.059 12.5,-4.948 11.58,-7.667 -0.597,-0.689 -5.564,1.067 -8.227,2.96 M 669.706,285.734 c 6.083,-9.442 -10.307,-4.296 -16.024,6.108 -2.724,4.952 0.466,5.058 5.723,2.475 6.206,-3.059 8.823,-6.296 10.301,-8.583 m -73.464,113.044 c 6.831,-8.687 -11.502,-0.37 -12.859,5.551 -0.433,1.939 2.888,1.273 7.278,-1.172 3.558,-1.984 4.866,-3.469 5.581,-4.379 m -95.093,116.746 c -4.307,1.569 -6.286,5.121 -0.413,1.965 3.401,-2.014 2.145,-2.593 0.413,-1.965 m 15.832,-24.477 c -4.291,-0.484 -12.796,8.68 -3.877,4.102 3.398,-1.75 5.224,-3.943 3.877,-4.102 M 644.795,256.336 c -10.476,6.513 -14.84,19.596 -4.282,15.021 16.496,-7.16 19.106,-24.208 4.282,-15.021 M 792.724,2.04 c -6.101,1.369 -16.492,9.977 -18.269,21.354 -0.424,2.757 1.566,3.871 6.363,1.521 6.497,-3.199 9.642,-6.42 11.906,-9.91 z M 547.396,429.075 c -7.235,3.879 -10.229,12.217 1.535,5.585 9.528,-5.388 7.178,-10.236 -1.535,-5.585 M 697.854,172.08 c 25.605,-13.329 7.872,-33.599 -6.389,-4.927 -3.429,6.926 0.013,8.251 6.389,4.927 M 579.471,387.773 c 9.473,-13.423 -23.487,4.487 -15.824,8.513 0.836,0.425 3.535,0.087 8.093,-2.309 5.988,-3.145 6.915,-5.067 7.731,-6.204 m -50.535,80.302 c 14.688,-7.64 -3.492,-6.808 -5.887,0.703 -0.423,1.346 0.566,2.065 5.887,-0.703 m 83.912,-136.546 c 4.994,-9.507 -14.292,-1.426 -18.795,7.687 -2.53,5.155 2.278,4.852 7.844,2.047 6.146,-3.103 7.929,-4.016 10.951,-9.734 M 485.809,522.51 c -1.447,1.636 1.798,0.211 2.219,-0.751 -0.449,0.05 -1.093,0.232 -2.219,0.751 M 694.856,103.862 c 0.353,-16.091 -31.034,14.117 -22.504,21.324 3.147,-1.648 7.338,-0.54 9.8,-3.965 5.184,-2.897 9.16,-9.324 12.704,-17.359 M 483.32,516.357 c 7.786,-5.06 -5.324,-1.743 -5.137,1.75 0.442,0.226 3.261,-0.484 5.137,-1.75 M 620.894,241.613 c 29.252,-15.384 3.095,-33.426 -9.198,-4.392 -3.001,7.105 1.014,8.679 9.198,4.392 M 515.68,459.204 c 6.339,-9.482 -21.344,5.329 -13.359,7.089 0.873,0.187 3.364,-0.316 7.231,-2.324 5.073,-2.638 5.581,-3.957 6.128,-4.765 m -21.048,33.716 c 14.068,-7.3 -4.621,-5.628 -5.987,0.91 -0.239,1.173 0.892,1.737 5.987,-0.91 M 592.22,312.53 c 6.589,-12.806 -16.857,-4 -21.956,8.18 -1.958,4.66 0.354,7.153 8.701,3.289 6.14,-2.842 10.836,-6.763 13.255,-11.469 m -30.938,61.151 c 5.618,-10.877 -16.621,-1.75 -20.674,7.998 -1.727,4.182 0.538,5.954 9.297,1.704 5.982,-2.899 9.3,-5.679 11.377,-9.702 m -24.954,47.271 c 4.157,-8.086 -15.294,-0.285 -18.389,7.337 -1.23,3.032 0.936,4.142 7.994,0.902 5.345,-2.462 8.71,-4.969 10.395,-8.239 m -7.596,-66.734 c -14.563,5.654 -22.855,25.239 -4.068,16.225 15.313,-7.362 18.095,-21.637 4.068,-16.225 M 671.187,32.101 c -6.96,-18.489 -41.284,40.063 -15.666,25.63 9.801,-5.555 17.762,-19.984 15.666,-25.63 m -75.745,152.126 c -12.9,8.504 -16.439,27.339 -3.215,21.758 20.647,-8.704 21.518,-33.778 3.215,-21.758 M 453.95,536.982 c 7.538,-4.303 -3.97,-2.086 -4.359,0.974 -0.103,0.877 1.714,0.537 4.359,-0.974 m 13.357,-24.597 c 1.336,-3.106 -9.728,1.215 -10.497,4.456 -0.368,1.568 2.199,0.95 5.454,-0.639 3.83,-1.875 4.713,-3.059 5.043,-3.817 m 11.939,-25.47 c 7.464,-9.071 -14.797,0.933 -13.619,5.419 0.349,1.343 4.332,0.362 8.935,-2.128 2.178,-1.185 4.02,-2.48 4.684,-3.291 m 86.215,-194.458 c 14.359,-22.623 -21.563,-7.682 -23.964,8.01 -0.824,5.641 4.416,5.666 13.017,1.119 5.934,-3.117 9.711,-7.196 10.947,-9.129 M 494.47,454.329 c 9.139,-12.164 -18.069,0.113 -17.58,6.814 0.179,2.214 4.954,1.229 10.76,-1.814 3.537,-1.86 5.954,-3.867 6.82,-5 m 18.731,-41.377 c 8.616,-14.187 -21.444,-0.528 -21.474,8.802 0.011,2.487 3.171,3.538 12.386,-1.265 5.238,-2.725 7.875,-5.557 9.088,-7.537 m -32.097,-17.235 c -19.715,5.467 -24.94,26.217 -3.789,15.243 15.366,-8.01 12.486,-17.636 3.789,-15.243 M 433.186,537.27 c 10.93,-5.829 -5.059,-3.475 -5.604,1.024 -0.126,1.043 1.115,1.366 5.604,-1.024 M 560.984,157.579 c 34.489,-19.55 -5.543,-46.029 -13.171,-5.458 -1.289,6.924 0.715,12.501 13.171,5.458 m -25.231,102.936 c 7.83,-22.246 -36.061,0.065 -27.472,15.571 1.249,2.244 5.832,2.731 13.264,-0.928 10.339,-5.085 12.471,-9.726 14.208,-14.643 m -89.178,249.569 c 0.871,-3.796 -12.814,2.253 -13.501,5.867 -0.385,2.068 3.675,1.078 7.499,-0.83 4.234,-2.111 5.448,-2.726 6.002,-5.037 m 11.567,-28.553 c 3.76,-8.573 -25.626,5.948 -17.28,8.946 0.945,0.339 4.137,-0.156 7.414,-1.59 5.776,-2.52 8.847,-5.055 9.866,-7.356 M 507.97,343.464 c 10.659,-21.031 -27.395,-4.06 -26.987,10.55 0.126,3.853 4.201,5.921 15.703,-0.179 6.539,-3.463 9.796,-7.464 11.284,-10.371 m -56.877,107.518 c -5.098,6.55 -0.447,8.859 10.271,3.576 5.989,-2.957 8.662,-5.73 9.829,-8.118 4.639,-9.54 -14.457,-2.672 -20.1,4.542 m -6.713,-68.044 c -19.877,7.592 -20.515,26.182 -1.864,18.027 18.185,-7.969 19.696,-24.815 1.864,-18.027 m -19.326,91.744 c -17.07,5.418 -18.912,19.135 -1.194,10.03 12.864,-6.631 8.749,-12.412 1.194,-10.03 m -17.467,79.429 c -5.391,0.292 -10.92,7.542 -2.561,3.254 3.183,-1.634 4.253,-3.34 2.561,-3.254 m 9.265,-47.107 c -11.694,4.106 -15.344,14.351 -0.555,6.902 10.807,-5.457 6.432,-8.964 0.555,-6.902 m 17.002,-72.4 c -17.538,5.626 -23.226,24.29 -1.901,13.775 16.273,-8.044 12.101,-17.021 1.901,-13.775 M 516.595,94.116 c 33.868,-21.26 -8.267,-53.758 -15.061,-8.468 -1.473,9.951 1.241,17.082 15.061,8.468 M 494.767,227.09 c 11.986,-32.758 -45.012,0.868 -26.837,15.501 1.929,1.543 7.127,1.872 14.85,-2.415 10.154,-5.634 10.97,-10.382 11.987,-13.086 m -79.596,305.847 c -0.654,-2.406 -13.213,3.209 -12.221,6.175 0.309,0.906 2.254,1.166 7.739,-1.743 3.116,-1.647 4.888,-2.885 4.482,-4.432 m 57.93,-211.056 c 8.064,-22.15 -29.795,-5.659 -30.045,10.752 -0.044,5.396 4.208,8.558 16.934,2.137 8.067,-4.082 11.62,-8.788 13.111,-12.889 M 437.831,-0.34 c 0.459,7.88 4.76,12.413 15.068,6.361 2.688,-1.588 5.044,-3.797 7.02,-6.361 z m -20.863,285.617 c -22.762,5.14 -28.911,39.197 -1.051,24.708 20.391,-10.646 12.393,-27.253 1.051,-24.708 m -15.46,138.859 c -23.666,5.662 -26.054,28.155 -2.169,15.99 16.168,-8.262 11.245,-18.135 2.169,-15.99 m -1.843,44.227 c -18.448,-1.883 -33.216,26.121 -6.536,12.658 9.489,-4.797 13.077,-11.983 6.536,-12.658 m -0.006,-99.553 c -19.052,9.326 -14.343,28.094 7.038,17.03 19.975,-10.371 13.077,-26.837 -7.038,-17.03 m 43.904,-194.902 c -0.765,-18.836 -34.443,-5.968 -32.146,17.298 0.689,6.859 5.577,12.583 19.786,4.043 8.094,-4.836 12.807,-9.645 12.36,-21.341 m -61.75,384.61 c 13.118,-6.794 -8.323,-3.05 -6.681,1.445 0.301,0.804 1.93,1.014 6.681,-1.445 m 8.644,-24.763 c 4.135,-7.332 -17.268,2.218 -15.014,6.039 0.845,1.396 4.61,0.465 9.591,-2.083 3.435,-1.751 5.058,-3.318 5.423,-3.956 m 6.087,-28.312 c 1.02,-6.598 -20.676,2.22 -20.6,8.365 0.055,2.456 3.632,3.032 11.721,-0.771 5.477,-2.574 8.457,-4.958 8.879,-7.594 m -43.409,26.28 c -11.085,4.64 -11.326,13.016 2.487,6.372 11.267,-5.431 8.22,-10.832 -2.487,-6.372 m 12.61,-119.312 c -25.032,-5.086 -39.831,34.941 -6.726,18.075 11.78,-6.011 15.474,-16.276 6.726,-18.075 m -7.801,162.349 c -3.937,-0.473 -12.395,5.867 -6.174,4.612 1.214,-0.606 3.705,-1.321 4.095,-1.863 1.962,-1.008 2.337,-1.9 2.079,-2.749 m 0.614,-112.626 c -20.934,4.968 -22.914,20.755 -9.495,17.432 2.687,-0.671 5.296,-1.769 9.298,-3.889 14.486,-7.677 7.913,-15.355 0.197,-13.543 m -15.716,-353.03 c -4.203,6.032 -4.196,18.978 -1.279,25.149 12.584,11.115 37.495,-9.552 27.337,-29.437 -4.138,-5.912 -20.033,-3.556 -26.058,4.288 m 29.079,152.543 c 0.874,-26.481 -51.05,0.131 -31.481,18.414 2.812,2.62 9.486,3.158 18.229,-1.155 12.172,-6.003 13.05,-11.459 13.252,-17.259 m -11.36,293.648 c -0.448,-2.796 -14.298,2.652 -13.548,5.914 0.363,1.517 3.901,0.74 7.904,-1.161 4.86,-2.305 5.819,-3.708 5.644,-4.753 m 11.298,-201.147 c 0.939,-23.349 -52.906,8.872 -29.963,18.214 3.258,1.298 8.909,0.478 14.866,-2.101 11.454,-4.971 14.838,-10.072 15.097,-16.113 m -6.292,148.27 c 0.293,-7.533 -24.798,2.489 -23.732,9.501 0.434,2.806 5.178,3.381 13.97,-0.748 6.075,-2.859 9.63,-5.751 9.762,-8.753 M 262.298,8.614 c -30.934,-26.99 -37.191,55.535 -4.277,35.872 12.584,-7.602 13.495,-27.751 4.277,-35.872 m 32.285,313.944 c -25.537,5.902 -23.205,38.834 5.646,23.781 21.116,-11.074 7.06,-26.697 -5.646,-23.781 m 20.241,132.534 c -26.083,6.431 -22.649,27.547 1.847,15.05 16.582,-8.491 8.153,-17.485 -1.847,-15.05 m 9.916,41.305 c -21.961,-0.835 -31.436,25.842 -4.152,12.056 9.711,-4.916 11.925,-11.749 4.152,-12.056 m -27.317,-93.313 c -19.797,9.689 -9.035,27.188 12.959,15.777 20.551,-10.702 7.939,-25.978 -12.959,-15.777 m -2.495,-190.007 c -6.252,-18.552 -42.999,-4.651 -33.57,18.189 2.789,6.713 10.267,12.13 24.825,3.233 8.298,-5.054 12.578,-9.934 8.745,-21.422 m 33.531,367.136 c 13.274,-6.89 -10.416,-2.343 -7.307,1.672 0.56,0.719 2.496,0.819 7.307,-1.672 m 3.301,-23.076 c 2.791,-6.945 -19.337,2.926 -15.697,6.311 1.352,1.233 5.445,0.184 10.507,-2.407 3.491,-1.781 4.939,-3.301 5.19,-3.904 m -0.603,-26.309 c -0.598,-6.127 -23.329,3.089 -21.567,8.751 0.73,2.254 5.025,2.601 13.353,-1.311 5.638,-2.647 8.442,-4.991 8.214,-7.44 m -74.867,-82.06 c -22.544,8.575 -12.545,24.714 7.91,15.811 19.942,-8.699 12.296,-23.465 -7.91,-15.811 m 26.605,80.336 c -19.647,6.339 -14.293,17.988 4.07,8.52 13.326,-6.904 4.617,-11.312 -4.07,-8.52 m 21.346,67.454 c -6.893,0.83 -10.109,7.321 -1.55,2.924 3.255,-1.683 3.715,-3.182 1.55,-2.924 m -14.029,-39.651 c -13.152,4.656 -12.206,13.503 3.127,5.766 11.203,-5.672 3.476,-8.102 -3.127,-5.766 m -18.347,-62.596 c -20.314,6.595 -17.19,23.006 5.306,11.9 17.174,-8.498 6.494,-15.703 -5.306,-11.9 M 182.559,175.776 c 35.438,-23.395 -46.339,-52.759 -27.099,-7.189 4.202,9.879 12.644,16.657 27.099,7.189 m 50.912,128.43 c -3.001,-31.538 -62.591,4.708 -28.113,16.666 3.634,1.252 11.08,1.088 19.274,-3.535 10.777,-6.066 9.05,-10.54 8.839,-13.131 m 68.983,274.243 c -2.19,-1.894 -15.576,4.062 -12.614,6.388 0.91,0.704 3.612,0.707 9.194,-2.272 3.175,-1.685 4.816,-2.892 3.42,-4.116 M 259.799,392.252 c -1.931,-20.555 -44.276,-2.281 -34.834,12.403 3.134,4.794 10.833,7.193 24.455,0.29 8.637,-4.388 10.745,-8.902 10.379,-12.693 m -39.246,97.552 c -25.495,7.379 -14.627,24.157 7.925,12.36 16.375,-8.616 3.301,-15.592 -7.925,-12.36 M -0.407,78.256 c 0.53,0.916 1.107,1.863 1.735,2.843 8.239,12.784 21.863,16.893 31.358,7.836 C 51.975,70.534 13.529,50.458 -0.407,56.76 Z m 273.25,524.571 c 11.165,-6.008 -10.471,-1.625 -7.403,1.682 0.715,0.764 2.817,0.777 7.403,-1.682 M 121.77,279.019 c 37.882,-22.289 -56.29,-41.456 -27.49,-3.166 4.864,6.427 13.827,11.164 27.49,3.166 m 59.243,93.199 c -8.649,-19.978 -58.144,5.327 -29.222,17.096 4.159,1.69 11.977,1.416 20.387,-2.732 11.721,-5.769 10.723,-9.978 8.835,-14.364 m 88.317,208.848 c -1.971,-2.885 -17.147,3.774 -15.017,6.508 1.214,1.552 6.4,0.151 10.441,-1.865 4.472,-2.232 5.747,-2.883 4.576,-4.643 m -7.477,-22.747 c -1.822,-6.933 -33.291,8.629 -18.106,9.434 1.715,0.092 6.071,-0.804 9.731,-2.4 6.462,-2.807 8.857,-5.177 8.375,-7.034 M 214.584,444.462 c -2.688,-18.539 -46.817,0.94 -32.485,12.594 3.765,3.048 12.068,4.046 24.404,-2.582 7.026,-3.762 8.428,-7.46 8.081,-10.012 m 9.692,92.327 c -1.904,5.74 7.211,6.697 18.761,0.994 6.456,-3.188 8.06,-5.704 7.716,-7.686 -1.391,-7.931 -24.333,0.344 -26.477,6.692 m -71.883,-50.122 c -18.597,7.155 -7.97,22.444 13.609,12.109 17.594,-8.447 4.29,-18.953 -13.609,-12.109 M 45.083,344.998 c -12.622,9.475 7.372,25.169 24.594,18.069 26.886,-11.121 -6.675,-31.496 -24.594,-18.069 m 197.041,258.567 c -1.45,-2.195 -14.752,2.998 -12.163,5.153 1.238,1.037 4.784,0.063 8.301,-1.658 4.147,-2.032 4.214,-2.957 3.862,-3.495 m -10.753,-19.061 c -1.433,-6.422 -28.857,8.432 -13.305,7.132 1.692,-0.144 5.208,-1.075 9.117,-3.112 5.124,-2.681 4.294,-3.47 4.188,-4.02 m -93.683,-149.92 c -3.898,-19.812 -49.722,-1.083 -32.941,10.997 6.017,4.285 15.59,3.169 25.164,-1.983 6.624,-3.547 8.088,-7.332 7.777,-9.014 m 80.499,126.52 c 0.753,-9.886 -30.688,4.19 -21.585,8.365 3.002,1.365 9.93,-0.357 16.082,-3.619 3.774,-2.005 5.418,-3.824 5.503,-4.746 M 199.469,529.97 c -2.746,-11.356 -37.877,4.465 -26.16,10.651 3.118,1.632 9.902,1.598 19.831,-3.637 5.65,-2.974 6.696,-5.434 6.329,-7.014 M -0.407,423.963 c 0.79,1.59 2.296,3.38 4.671,5.381 6.621,5.561 18.04,5.465 27.636,0.326 C 59.626,414.725 6.306,408.556 -0.407,419.056 Z M 187.642,587.75 c -2.873,-6.793 -32.032,9.125 -14.133,7.634 1.946,-0.169 5.864,-1.17 10.018,-3.354 5.454,-2.868 4.338,-3.698 4.115,-4.28 m 11.004,24.27 c 0.571,-0.261 1.175,-0.557 1.813,-0.891 13.239,-6.949 -10.525,-2.726 -10.929,0.891 z M 97.423,482.944 c -8.616,-9.733 -41.466,2.389 -30.672,11.306 4.07,3.38 13.096,4.198 23.403,-0.536 7.591,-3.489 10.389,-7.203 7.269,-10.77 m 40.894,44.992 c -6.595,-7.513 -35.951,3.754 -27.576,10.592 3.28,2.678 10.498,2.959 20.185,-1.415 7.317,-3.329 10.02,-6.16 7.391,-9.177 m 28.582,35.251 c -0.526,-9.418 -34.594,3.914 -22.068,8.418 2.958,1.064 8.821,0.646 17.114,-3.898 3.074,-1.686 5.01,-3.506 4.954,-4.52 M -0.407,484.774 c 4.598,-3.235 3.666,-6.289 0,-8.38 z m 119.752,109.084 c -7.755,4.261 2.461,8.687 14.337,1.679 9.626,-5.71 -4.987,-6.801 -14.337,-1.679 m -12.996,-29.485 c -6.662,-9.332 -42.197,10.638 -17.148,9.504 2.698,-0.127 7.872,-1.267 12.927,-3.982 6.644,-3.56 4.759,-4.731 4.221,-5.522 m 52.605,47.647 c -0.813,-0.21 -1.949,-0.188 -3.227,0 z M 62.443,527.106 c -8.977,-6.315 -35.527,4.57 -26.101,10.516 5.284,3.31 15.567,1.383 22.086,-1.951 7.26,-3.7 9.325,-4.779 4.015,-8.565 M 10.141,569.45 c -7.984,5.269 5.959,9.175 17.277,4.219 17.705,-7.774 -5.991,-11.638 -17.277,-4.219 m 66.169,27.116 c -4.839,-5.544 -28.628,5.092 -17.266,7.368 3.694,0.741 10.049,-0.955 14.585,-3.617 3.676,-2.161 3.172,-3.17 2.681,-3.751 m -76.717,10.896 c 1.212,-0.485 2.478,-1.095 3.793,-1.848 7.092,-4.09 2.594,-5.17 -3.793,-4.655 z"
           style="fill:#ffffff;fill-opacity:1;fill-rule:nonzero;stroke:none"
           id="path833"
           inkscape:connector-curvature="0" /><path
           d="m -0.407,600.959 c 6.387,-0.515 10.885,0.565 3.793,4.655 -1.315,0.753 -2.581,1.363 -3.793,1.848 z"
           style="fill:#231f20;fill-opacity:1;fill-rule:nonzero;stroke:none"
           id="path835"
           inkscape:connector-curvature="0" /><path
           d="m 59.044,603.934 c -11.362,-2.276 12.427,-12.912 17.266,-7.368 0.491,0.581 0.995,1.59 -2.681,3.751 -4.536,2.662 -10.891,4.358 -14.585,3.617"
           style="fill:#231f20;fill-opacity:1;fill-rule:nonzero;stroke:none"
           id="path837"
           inkscape:connector-curvature="0" /><path
           d="m 27.418,573.669 c -11.318,4.956 -25.261,1.05 -17.277,-4.219 11.286,-7.419 34.982,-3.555 17.277,4.219"
           style="fill:#231f20;fill-opacity:1;fill-rule:nonzero;stroke:none"
           id="path839"
           inkscape:connector-curvature="0" /><path
           d="m 36.342,537.622 c -9.426,-5.946 17.124,-16.831 26.101,-10.516 5.31,3.786 3.245,4.865 -4.015,8.565 -6.519,3.334 -16.802,5.261 -22.086,1.951"
           style="fill:#231f20;fill-opacity:1;fill-rule:nonzero;stroke:none"
           id="path841"
           inkscape:connector-curvature="0" /><path
           d="m 155.727,612.02 c 1.278,-0.188 2.414,-0.21 3.227,0 z"
           style="fill:#231f20;fill-opacity:1;fill-rule:nonzero;stroke:none"
           id="path843"
           inkscape:connector-curvature="0" /><path
           d="m 89.201,573.877 c -25.049,1.134 10.486,-18.836 17.148,-9.504 0.538,0.791 2.423,1.962 -4.221,5.522 -5.055,2.715 -10.229,3.855 -12.927,3.982"
           style="fill:#231f20;fill-opacity:1;fill-rule:nonzero;stroke:none"
           id="path845"
           inkscape:connector-curvature="0" /><path
           d="m 133.682,595.537 c -11.876,7.008 -22.092,2.582 -14.337,-1.679 9.35,-5.122 23.963,-4.031 14.337,1.679"
           style="fill:#231f20;fill-opacity:1;fill-rule:nonzero;stroke:none"
           id="path847"
           inkscape:connector-curvature="0" /><path
           d="m -0.407,476.394 c 3.666,2.091 4.598,5.145 0,8.38 z"
           style="fill:#231f20;fill-opacity:1;fill-rule:nonzero;stroke:none"
           id="path849"
           inkscape:connector-curvature="0" /><path
           d="m 144.831,571.605 c -12.526,-4.504 21.542,-17.836 22.068,-8.418 0.056,1.014 -1.88,2.834 -4.954,4.52 -8.293,4.544 -14.156,4.962 -17.114,3.898"
           style="fill:#231f20;fill-opacity:1;fill-rule:nonzero;stroke:none"
           id="path851"
           inkscape:connector-curvature="0" /><path
           d="m 110.741,538.528 c -8.375,-6.838 20.981,-18.105 27.576,-10.592 2.629,3.017 -0.074,5.848 -7.391,9.177 -9.687,4.374 -16.905,4.093 -20.185,1.415"
           style="fill:#231f20;fill-opacity:1;fill-rule:nonzero;stroke:none"
           id="path853"
           inkscape:connector-curvature="0" /><path
           d="m 66.751,494.25 c -10.794,-8.917 22.056,-21.039 30.672,-11.306 3.12,3.567 0.322,7.281 -7.269,10.77 -10.307,4.734 -19.333,3.916 -23.403,0.536"
           style="fill:#231f20;fill-opacity:1;fill-rule:nonzero;stroke:none"
           id="path855"
           inkscape:connector-curvature="0" /><path
           d="m 189.53,612.02 c 0.404,-3.617 24.168,-7.84 10.929,-0.891 -0.638,0.334 -1.242,0.63 -1.813,0.891 z"
           style="fill:#231f20;fill-opacity:1;fill-rule:nonzero;stroke:none"
           id="path857"
           inkscape:connector-curvature="0" /><path
           d="m 173.509,595.384 c -17.899,1.491 11.26,-14.427 14.133,-7.634 0.223,0.582 1.339,1.412 -4.115,4.28 -4.154,2.184 -8.072,3.185 -10.018,3.354"
           style="fill:#231f20;fill-opacity:1;fill-rule:nonzero;stroke:none"
           id="path859"
           inkscape:connector-curvature="0" /><path
           d="m -0.407,419.056 c 6.713,-10.5 60.033,-4.331 32.307,10.614 -9.596,5.139 -21.015,5.235 -27.636,-0.326 -2.375,-2.001 -3.881,-3.791 -4.671,-5.381 z"
           style="fill:#231f20;fill-opacity:1;fill-rule:nonzero;stroke:none"
           id="path861"
           inkscape:connector-curvature="0" /><path
           d="m 173.309,540.621 c -11.717,-6.186 23.414,-22.007 26.16,-10.651 0.367,1.58 -0.679,4.04 -6.329,7.014 -9.929,5.235 -16.713,5.269 -19.831,3.637"
           style="fill:#231f20;fill-opacity:1;fill-rule:nonzero;stroke:none"
           id="path863"
           inkscape:connector-curvature="0" /><path
           d="m 196.602,569.469 c -9.103,-4.175 22.338,-18.251 21.585,-8.365 -0.085,0.922 -1.729,2.741 -5.503,4.746 -6.152,3.262 -13.08,4.984 -16.082,3.619"
           style="fill:#231f20;fill-opacity:1;fill-rule:nonzero;stroke:none"
           id="path865"
           inkscape:connector-curvature="0" /><path
           d="m 104.747,445.581 c -16.781,-12.08 29.043,-30.809 32.941,-10.997 0.311,1.682 -1.153,5.467 -7.777,9.014 -9.574,5.152 -19.147,6.268 -25.164,1.983"
           style="fill:#231f20;fill-opacity:1;fill-rule:nonzero;stroke:none"
           id="path867"
           inkscape:connector-curvature="0" /><path
           d="m 218.066,591.636 c -15.552,1.3 11.872,-13.554 13.305,-7.132 0.106,0.55 0.936,1.339 -4.188,4.02 -3.909,2.037 -7.425,2.968 -9.117,3.112"
           style="fill:#231f20;fill-opacity:1;fill-rule:nonzero;stroke:none"
           id="path869"
           inkscape:connector-curvature="0" /><path
           d="m 229.961,608.718 c -2.589,-2.155 10.713,-7.348 12.163,-5.153 0.352,0.538 0.285,1.463 -3.862,3.495 -3.517,1.721 -7.063,2.695 -8.301,1.658"
           style="fill:#231f20;fill-opacity:1;fill-rule:nonzero;stroke:none"
           id="path871"
           inkscape:connector-curvature="0" /><path
           d="m 69.677,363.067 c -17.222,7.1 -37.216,-8.594 -24.594,-18.069 17.919,-13.427 51.48,6.948 24.594,18.069"
           style="fill:#231f20;fill-opacity:1;fill-rule:nonzero;stroke:none"
           id="path873"
           inkscape:connector-curvature="0" /><path
           d="m 166.002,498.776 c -21.579,10.335 -32.206,-4.954 -13.609,-12.109 17.899,-6.844 31.203,3.662 13.609,12.109"
           style="fill:#231f20;fill-opacity:1;fill-rule:nonzero;stroke:none"
           id="path875"
           inkscape:connector-curvature="0" /><path
           d="m 243.037,537.783 c -11.55,5.703 -20.665,4.746 -18.761,-0.994 2.144,-6.348 25.086,-14.623 26.477,-6.692 0.344,1.982 -1.26,4.498 -7.716,7.686"
           style="fill:#231f20;fill-opacity:1;fill-rule:nonzero;stroke:none"
           id="path877"
           inkscape:connector-curvature="0" /><path
           d="m 182.099,457.056 c -14.332,-11.654 29.797,-31.133 32.485,-12.594 0.347,2.552 -1.055,6.25 -8.081,10.012 -12.336,6.628 -20.639,5.63 -24.404,2.582"
           style="fill:#231f20;fill-opacity:1;fill-rule:nonzero;stroke:none"
           id="path879"
           inkscape:connector-curvature="0" /><path
           d="m 243.747,567.753 c -15.185,-0.805 16.284,-16.367 18.106,-9.434 0.482,1.857 -1.913,4.227 -8.375,7.034 -3.66,1.596 -8.016,2.492 -9.731,2.4"
           style="fill:#231f20;fill-opacity:1;fill-rule:nonzero;stroke:none"
           id="path881"
           inkscape:connector-curvature="0" /><path
           d="m 254.313,587.574 c -2.13,-2.734 13.046,-9.393 15.017,-6.508 1.171,1.76 -0.104,2.411 -4.576,4.643 -4.041,2.016 -9.227,3.417 -10.441,1.865"
           style="fill:#231f20;fill-opacity:1;fill-rule:nonzero;stroke:none"
           id="path883"
           inkscape:connector-curvature="0" /><path
           d="m 151.791,389.314 c -28.922,-11.769 20.573,-37.074 29.222,-17.096 1.888,4.386 2.886,8.595 -8.835,14.364 -8.41,4.148 -16.228,4.422 -20.387,2.732"
           style="fill:#231f20;fill-opacity:1;fill-rule:nonzero;stroke:none"
           id="path885"
           inkscape:connector-curvature="0" /><path
           d="m 94.28,275.853 c -28.8,-38.29 65.372,-19.123 27.49,3.166 -13.663,7.998 -22.626,3.261 -27.49,-3.166"
           style="fill:#231f20;fill-opacity:1;fill-rule:nonzero;stroke:none"
           id="path887"
           inkscape:connector-curvature="0" /><path
           d="m 265.44,604.509 c -3.068,-3.307 18.568,-7.69 7.403,-1.682 -4.586,2.459 -6.688,2.446 -7.403,1.682"
           style="fill:#231f20;fill-opacity:1;fill-rule:nonzero;stroke:none"
           id="path889"
           inkscape:connector-curvature="0" /><path
           d="M -0.407,56.76 C 13.529,50.458 51.975,70.534 32.686,88.935 23.191,97.992 9.567,93.883 1.328,81.099 0.7,80.119 0.123,79.172 -0.407,78.256 Z"
           style="fill:#231f20;fill-opacity:1;fill-rule:nonzero;stroke:none"
           id="path891"
           inkscape:connector-curvature="0" /><path
           d="m 228.478,502.164 c -22.552,11.797 -33.42,-4.981 -7.925,-12.36 11.226,-3.232 24.3,3.744 7.925,12.36"
           style="fill:#231f20;fill-opacity:1;fill-rule:nonzero;stroke:none"
           id="path893"
           inkscape:connector-curvature="0" /><path
           d="m 224.965,404.655 c -9.442,-14.684 32.903,-32.958 34.834,-12.403 0.366,3.791 -1.742,8.305 -10.379,12.693 -13.622,6.903 -21.321,4.504 -24.455,-0.29"
           style="fill:#231f20;fill-opacity:1;fill-rule:nonzero;stroke:none"
           id="path895"
           inkscape:connector-curvature="0" /><path
           d="m 289.84,584.837 c -2.962,-2.326 10.424,-8.282 12.614,-6.388 1.396,1.224 -0.245,2.431 -3.42,4.116 -5.582,2.979 -8.284,2.976 -9.194,2.272"
           style="fill:#231f20;fill-opacity:1;fill-rule:nonzero;stroke:none"
           id="path897"
           inkscape:connector-curvature="0" /><path
           d="m 205.358,320.872 c -34.478,-11.958 25.112,-48.204 28.113,-16.666 0.211,2.591 1.938,7.065 -8.839,13.131 -8.194,4.623 -15.64,4.787 -19.274,3.535"
           style="fill:#231f20;fill-opacity:1;fill-rule:nonzero;stroke:none"
           id="path899"
           inkscape:connector-curvature="0" /><path
           d="m 155.46,168.587 c -19.24,-45.57 62.537,-16.206 27.099,7.189 -14.455,9.468 -22.897,2.69 -27.099,-7.189"
           style="fill:#231f20;fill-opacity:1;fill-rule:nonzero;stroke:none"
           id="path901"
           inkscape:connector-curvature="0" /><path
           d="m 277.171,506.211 c -22.496,11.106 -25.62,-5.305 -5.306,-11.9 11.8,-3.803 22.48,3.402 5.306,11.9"
           style="fill:#231f20;fill-opacity:1;fill-rule:nonzero;stroke:none"
           id="path903"
           inkscape:connector-curvature="0" /><path
           d="m 293.339,562.673 c -15.333,7.737 -16.279,-1.11 -3.127,-5.766 6.603,-2.336 14.33,0.094 3.127,5.766"
           style="fill:#231f20;fill-opacity:1;fill-rule:nonzero;stroke:none"
           id="path905"
           inkscape:connector-curvature="0" /><path
           d="m 302.691,599.482 c -8.559,4.397 -5.343,-2.094 1.55,-2.924 2.165,-0.258 1.705,1.241 -1.55,2.924"
           style="fill:#231f20;fill-opacity:1;fill-rule:nonzero;stroke:none"
           id="path907"
           inkscape:connector-curvature="0" /><path
           d="m 286.965,537.624 c -18.363,9.468 -23.717,-2.181 -4.07,-8.52 8.687,-2.792 17.396,1.616 4.07,8.52"
           style="fill:#231f20;fill-opacity:1;fill-rule:nonzero;stroke:none"
           id="path909"
           inkscape:connector-curvature="0" /><path
           d="m 264.2,464.579 c -20.455,8.903 -30.454,-7.236 -7.91,-15.811 20.206,-7.654 27.852,7.112 7.91,15.811"
           style="fill:#231f20;fill-opacity:1;fill-rule:nonzero;stroke:none"
           id="path911"
           inkscape:connector-curvature="0" /><path
           d="m 309.59,539.579 c -1.762,-5.662 20.969,-14.878 21.567,-8.751 0.228,2.449 -2.576,4.793 -8.214,7.44 -8.328,3.912 -12.623,3.565 -13.353,1.311"
           style="fill:#231f20;fill-opacity:1;fill-rule:nonzero;stroke:none"
           id="path913"
           inkscape:connector-curvature="0" /><path
           d="m 316.063,563.448 c -3.64,-3.385 18.488,-13.256 15.697,-6.311 -0.251,0.603 -1.699,2.123 -5.19,3.904 -5.062,2.591 -9.155,3.64 -10.507,2.407"
           style="fill:#231f20;fill-opacity:1;fill-rule:nonzero;stroke:none"
           id="path915"
           inkscape:connector-curvature="0" /><path
           d="m 321.152,581.885 c -3.109,-4.015 20.581,-8.562 7.307,-1.672 -4.811,2.491 -6.747,2.391 -7.307,1.672"
           style="fill:#231f20;fill-opacity:1;fill-rule:nonzero;stroke:none"
           id="path917"
           inkscape:connector-curvature="0" /><path
           d="m 261.358,231.266 c -9.429,-22.84 27.318,-36.741 33.57,-18.189 3.833,11.488 -0.447,16.368 -8.745,21.422 -14.558,8.897 -22.036,3.48 -24.825,-3.233"
           style="fill:#231f20;fill-opacity:1;fill-rule:nonzero;stroke:none"
           id="path919"
           inkscape:connector-curvature="0" /><path
           d="m 310.382,418.861 c -21.994,11.411 -32.756,-6.088 -12.959,-15.777 20.898,-10.201 33.51,5.075 12.959,15.777"
           style="fill:#231f20;fill-opacity:1;fill-rule:nonzero;stroke:none"
           id="path921"
           inkscape:connector-curvature="0" /><path
           d="m 320.588,508.453 c -27.284,13.786 -17.809,-12.891 4.152,-12.056 7.773,0.307 5.559,7.14 -4.152,12.056"
           style="fill:#231f20;fill-opacity:1;fill-rule:nonzero;stroke:none"
           id="path923"
           inkscape:connector-curvature="0" /><path
           d="m 316.671,470.142 c -24.496,12.497 -27.93,-8.619 -1.847,-15.05 10,-2.435 18.429,6.559 1.847,15.05"
           style="fill:#231f20;fill-opacity:1;fill-rule:nonzero;stroke:none"
           id="path925"
           inkscape:connector-curvature="0" /><path
           d="m 300.229,346.339 c -28.851,15.053 -31.183,-17.879 -5.646,-23.781 12.706,-2.916 26.762,12.707 5.646,23.781"
           style="fill:#231f20;fill-opacity:1;fill-rule:nonzero;stroke:none"
           id="path927"
           inkscape:connector-curvature="0" /><path
           d="m 258.021,44.486 c -32.914,19.663 -26.657,-62.862 4.277,-35.872 9.218,8.121 8.307,28.27 -4.277,35.872"
           style="fill:#231f20;fill-opacity:1;fill-rule:nonzero;stroke:none"
           id="path929"
           inkscape:connector-curvature="0" /><path
           d="m 341.835,511.919 c -1.066,-7.012 24.025,-17.034 23.732,-9.501 -0.132,3.002 -3.687,5.894 -9.762,8.753 -8.792,4.129 -13.536,3.554 -13.97,0.748"
           style="fill:#231f20;fill-opacity:1;fill-rule:nonzero;stroke:none"
           id="path931"
           inkscape:connector-curvature="0" /><path
           d="m 341.896,372.362 c -22.943,-9.342 30.902,-41.563 29.963,-18.214 -0.259,6.041 -3.643,11.142 -15.097,16.113 -5.957,2.579 -11.608,3.399 -14.866,2.101"
           style="fill:#231f20;fill-opacity:1;fill-rule:nonzero;stroke:none"
           id="path933"
           inkscape:connector-curvature="0" /><path
           d="m 347.013,561.209 c -0.75,-3.262 13.1,-8.71 13.548,-5.914 0.175,1.045 -0.784,2.448 -5.644,4.753 -4.003,1.901 -7.541,2.678 -7.904,1.161"
           style="fill:#231f20;fill-opacity:1;fill-rule:nonzero;stroke:none"
           id="path935"
           inkscape:connector-curvature="0" /><path
           d="m 340.44,280.061 c -19.569,-18.283 32.355,-44.895 31.481,-18.414 -0.202,5.8 -1.08,11.256 -13.252,17.259 -8.743,4.313 -15.417,3.775 -18.229,1.155"
           style="fill:#231f20;fill-opacity:1;fill-rule:nonzero;stroke:none"
           id="path937"
           inkscape:connector-curvature="0" /><path
           d="m 341.563,134.253 c -2.917,-6.171 -2.924,-19.117 1.279,-25.149 6.025,-7.844 21.92,-10.2 26.058,-4.288 10.158,19.885 -14.753,40.552 -27.337,29.437"
           style="fill:#231f20;fill-opacity:1;fill-rule:nonzero;stroke:none"
           id="path939"
           inkscape:connector-curvature="0" /><path
           d="m 349.063,479.566 c -13.419,3.323 -11.439,-12.464 9.495,-17.432 7.716,-1.812 14.289,5.866 -0.197,13.543 -4.002,2.12 -6.611,3.218 -9.298,3.889"
           style="fill:#231f20;fill-opacity:1;fill-rule:nonzero;stroke:none"
           id="path941"
           inkscape:connector-curvature="0" /><path
           d="m 351.77,579.372 c -6.221,1.255 2.237,-5.085 6.174,-4.612 0.258,0.849 -0.117,1.741 -2.079,2.749 -0.39,0.542 -2.881,1.257 -4.095,1.863"
           style="fill:#231f20;fill-opacity:1;fill-rule:nonzero;stroke:none"
           id="path943"
           inkscape:connector-curvature="0" /><path
           d="m 359.019,430.486 c -33.105,16.866 -18.306,-23.161 6.726,-18.075 8.748,1.799 5.054,12.064 -6.726,18.075"
           style="fill:#231f20;fill-opacity:1;fill-rule:nonzero;stroke:none"
           id="path945"
           inkscape:connector-curvature="0" /><path
           d="m 355.622,538.095 c -13.813,6.644 -13.572,-1.732 -2.487,-6.372 10.707,-4.46 13.754,0.941 2.487,6.372"
           style="fill:#231f20;fill-opacity:1;fill-rule:nonzero;stroke:none"
           id="path947"
           inkscape:connector-curvature="0" /><path
           d="m 375.944,513.808 c -0.076,-6.145 21.62,-14.963 20.6,-8.365 -0.422,2.636 -3.402,5.02 -8.879,7.594 -8.089,3.803 -11.666,3.227 -11.721,0.771"
           style="fill:#231f20;fill-opacity:1;fill-rule:nonzero;stroke:none"
           id="path949"
           inkscape:connector-curvature="0" /><path
           d="m 375.443,539.794 c -2.254,-3.821 19.149,-13.371 15.014,-6.039 -0.365,0.638 -1.988,2.205 -5.423,3.956 -4.981,2.548 -8.746,3.479 -9.591,2.083"
           style="fill:#231f20;fill-opacity:1;fill-rule:nonzero;stroke:none"
           id="path951"
           inkscape:connector-curvature="0" /><path
           d="m 375.132,559.963 c -1.642,-4.495 19.799,-8.239 6.681,-1.445 -4.751,2.459 -6.38,2.249 -6.681,1.445"
           style="fill:#231f20;fill-opacity:1;fill-rule:nonzero;stroke:none"
           id="path953"
           inkscape:connector-curvature="0" /><path
           d="m 411.417,191.206 c -2.297,-23.266 31.381,-36.134 32.146,-17.298 0.447,11.696 -4.266,16.505 -12.36,21.341 -14.209,8.54 -19.097,2.816 -19.786,-4.043"
           style="fill:#231f20;fill-opacity:1;fill-rule:nonzero;stroke:none"
           id="path955"
           inkscape:connector-curvature="0" /><path
           d="m 406.697,385.84 c -21.381,11.064 -26.09,-7.704 -7.038,-17.03 20.115,-9.807 27.013,6.659 7.038,17.03"
           style="fill:#231f20;fill-opacity:1;fill-rule:nonzero;stroke:none"
           id="path957"
           inkscape:connector-curvature="0" /><path
           d="m 393.129,481.021 c -26.68,13.463 -11.912,-14.541 6.536,-12.658 6.541,0.675 2.953,7.861 -6.536,12.658"
           style="fill:#231f20;fill-opacity:1;fill-rule:nonzero;stroke:none"
           id="path959"
           inkscape:connector-curvature="0" /><path
           d="m 399.339,440.126 c -23.885,12.165 -21.497,-10.328 2.169,-15.99 9.076,-2.145 13.999,7.728 -2.169,15.99"
           style="fill:#231f20;fill-opacity:1;fill-rule:nonzero;stroke:none"
           id="path961"
           inkscape:connector-curvature="0" /><path
           d="m 415.917,309.985 c -27.86,14.489 -21.711,-19.568 1.051,-24.708 11.342,-2.545 19.34,14.062 -1.051,24.708"
           style="fill:#231f20;fill-opacity:1;fill-rule:nonzero;stroke:none"
           id="path963"
           inkscape:connector-curvature="0" /><path
           d="m 459.919,-0.34 c -1.976,2.564 -4.332,4.773 -7.02,6.361 -10.308,6.052 -14.609,1.519 -15.068,-6.361 z"
           style="fill:#231f20;fill-opacity:1;fill-rule:nonzero;stroke:none"
           id="path965"
           inkscape:connector-curvature="0" /><path
           d="m 443.056,332.633 c 0.25,-16.411 38.109,-32.902 30.045,-10.752 -1.491,4.101 -5.044,8.807 -13.111,12.889 -12.726,6.421 -16.978,3.259 -16.934,-2.137"
           style="fill:#231f20;fill-opacity:1;fill-rule:nonzero;stroke:none"
           id="path967"
           inkscape:connector-curvature="0" /><path
           d="m 402.95,539.112 c -0.992,-2.966 11.567,-8.581 12.221,-6.175 0.406,1.547 -1.366,2.785 -4.482,4.432 -5.485,2.909 -7.43,2.649 -7.739,1.743"
           style="fill:#231f20;fill-opacity:1;fill-rule:nonzero;stroke:none"
           id="path969"
           inkscape:connector-curvature="0" /><path
           d="m 467.93,242.591 c -18.175,-14.633 38.823,-48.259 26.837,-15.501 -1.017,2.704 -1.833,7.452 -11.987,13.086 -7.723,4.287 -12.921,3.958 -14.85,2.415"
           style="fill:#231f20;fill-opacity:1;fill-rule:nonzero;stroke:none"
           id="path971"
           inkscape:connector-curvature="0" /><path
           d="m 501.534,85.648 c 6.794,-45.29 48.929,-12.792 15.061,8.468 -13.82,8.614 -16.534,1.483 -15.061,-8.468"
           style="fill:#231f20;fill-opacity:1;fill-rule:nonzero;stroke:none"
           id="path973"
           inkscape:connector-curvature="0" /><path
           d="m 431.953,448.379 c -21.325,10.515 -15.637,-8.149 1.901,-13.775 10.2,-3.246 14.372,5.731 -1.901,13.775"
           style="fill:#231f20;fill-opacity:1;fill-rule:nonzero;stroke:none"
           id="path975"
           inkscape:connector-curvature="0" /><path
           d="m 416.297,513.906 c -14.789,7.449 -11.139,-2.796 0.555,-6.902 5.877,-2.062 10.252,1.445 -0.555,6.902"
           style="fill:#231f20;fill-opacity:1;fill-rule:nonzero;stroke:none"
           id="path977"
           inkscape:connector-curvature="0" /><path
           d="m 405.026,557.365 c -8.359,4.288 -2.83,-2.962 2.561,-3.254 1.692,-0.086 0.622,1.62 -2.561,3.254"
           style="fill:#231f20;fill-opacity:1;fill-rule:nonzero;stroke:none"
           id="path979"
           inkscape:connector-curvature="0" /><path
           d="m 423.86,484.712 c -17.718,9.105 -15.876,-4.612 1.194,-10.03 7.555,-2.382 11.67,3.399 -1.194,10.03"
           style="fill:#231f20;fill-opacity:1;fill-rule:nonzero;stroke:none"
           id="path981"
           inkscape:connector-curvature="0" /><path
           d="m 442.516,400.965 c -18.651,8.155 -18.013,-10.435 1.864,-18.027 17.832,-6.788 16.321,10.058 -1.864,18.027"
           style="fill:#231f20;fill-opacity:1;fill-rule:nonzero;stroke:none"
           id="path983"
           inkscape:connector-curvature="0" /><path
           d="m 461.364,454.558 c -10.718,5.283 -15.369,2.974 -10.271,-3.576 5.643,-7.214 24.739,-14.082 20.1,-4.542 -1.167,2.388 -3.84,5.161 -9.829,8.118"
           style="fill:#231f20;fill-opacity:1;fill-rule:nonzero;stroke:none"
           id="path985"
           inkscape:connector-curvature="0" /><path
           d="m 480.983,354.014 c -0.408,-14.61 37.646,-31.581 26.987,-10.55 -1.488,2.907 -4.745,6.908 -11.284,10.371 -11.502,6.1 -15.577,4.032 -15.703,0.179"
           style="fill:#231f20;fill-opacity:1;fill-rule:nonzero;stroke:none"
           id="path987"
           inkscape:connector-curvature="0" /><path
           d="m 440.862,490.477 c -8.346,-2.998 21.04,-17.519 17.28,-8.946 -1.019,2.301 -4.09,4.836 -9.866,7.356 -3.277,1.434 -6.469,1.929 -7.414,1.59"
           style="fill:#231f20;fill-opacity:1;fill-rule:nonzero;stroke:none"
           id="path989"
           inkscape:connector-curvature="0" /><path
           d="m 433.074,515.951 c 0.687,-3.614 14.372,-9.663 13.501,-5.867 -0.554,2.311 -1.768,2.926 -6.002,5.037 -3.824,1.908 -7.884,2.898 -7.499,0.83"
           style="fill:#231f20;fill-opacity:1;fill-rule:nonzero;stroke:none"
           id="path991"
           inkscape:connector-curvature="0" /><path
           d="m 508.281,276.086 c -8.589,-15.506 35.302,-37.817 27.472,-15.571 -1.737,4.917 -3.869,9.558 -14.208,14.643 -7.432,3.659 -12.015,3.172 -13.264,0.928"
           style="fill:#231f20;fill-opacity:1;fill-rule:nonzero;stroke:none"
           id="path993"
           inkscape:connector-curvature="0" /><path
           d="m 547.813,152.121 c 7.628,-40.571 47.66,-14.092 13.171,5.458 -12.456,7.043 -14.46,1.466 -13.171,-5.458"
           style="fill:#231f20;fill-opacity:1;fill-rule:nonzero;stroke:none"
           id="path995"
           inkscape:connector-curvature="0" /><path
           d="m 427.582,538.294 c 0.545,-4.499 16.534,-6.853 5.604,-1.024 -4.489,2.39 -5.73,2.067 -5.604,1.024"
           style="fill:#231f20;fill-opacity:1;fill-rule:nonzero;stroke:none"
           id="path997"
           inkscape:connector-curvature="0" /><path
           d="m 477.315,410.96 c -21.151,10.974 -15.926,-9.776 3.789,-15.243 8.697,-2.393 11.577,7.233 -3.789,15.243"
           style="fill:#231f20;fill-opacity:1;fill-rule:nonzero;stroke:none"
           id="path999"
           inkscape:connector-curvature="0" /><path
           d="m 491.727,421.754 c 0.03,-9.33 30.09,-22.989 21.474,-8.802 -1.213,1.98 -3.85,4.812 -9.088,7.537 -9.215,4.803 -12.375,3.752 -12.386,1.265"
           style="fill:#231f20;fill-opacity:1;fill-rule:nonzero;stroke:none"
           id="path1001"
           inkscape:connector-curvature="0" /><path
           d="m 476.89,461.143 c -0.489,-6.701 26.719,-18.978 17.58,-6.814 -0.866,1.133 -3.283,3.14 -6.82,5 -5.806,3.043 -10.581,4.028 -10.76,1.814"
           style="fill:#231f20;fill-opacity:1;fill-rule:nonzero;stroke:none"
           id="path1003"
           inkscape:connector-curvature="0" /><path
           d="m 541.497,300.467 c 2.401,-15.692 38.323,-30.633 23.964,-8.01 -1.236,1.933 -5.013,6.012 -10.947,9.129 -8.601,4.547 -13.841,4.522 -13.017,-1.119"
           style="fill:#231f20;fill-opacity:1;fill-rule:nonzero;stroke:none"
           id="path1005"
           inkscape:connector-curvature="0" /><path
           d="m 465.627,492.334 c -1.178,-4.486 21.083,-14.49 13.619,-5.419 -0.664,0.811 -2.506,2.106 -4.684,3.291 -4.603,2.49 -8.586,3.471 -8.935,2.128"
           style="fill:#231f20;fill-opacity:1;fill-rule:nonzero;stroke:none"
           id="path1007"
           inkscape:connector-curvature="0" /><path
           d="m 456.81,516.841 c 0.769,-3.241 11.833,-7.562 10.497,-4.456 -0.33,0.758 -1.213,1.942 -5.043,3.817 -3.255,1.589 -5.822,2.207 -5.454,0.639"
           style="fill:#231f20;fill-opacity:1;fill-rule:nonzero;stroke:none"
           id="path1009"
           inkscape:connector-curvature="0" /><path
           d="m 449.591,537.956 c 0.389,-3.06 11.897,-5.277 4.359,-0.974 -2.645,1.511 -4.462,1.851 -4.359,0.974"
           style="fill:#231f20;fill-opacity:1;fill-rule:nonzero;stroke:none"
           id="path1011"
           inkscape:connector-curvature="0" /><path
           d="m 592.227,205.985 c -13.224,5.581 -9.685,-13.254 3.215,-21.758 18.303,-12.02 17.432,13.054 -3.215,21.758"
           style="fill:#231f20;fill-opacity:1;fill-rule:nonzero;stroke:none"
           id="path1013"
           inkscape:connector-curvature="0" /><path
           d="m 655.521,57.731 c -25.618,14.433 8.706,-44.119 15.666,-25.63 2.096,5.646 -5.865,20.075 -15.666,25.63"
           style="fill:#231f20;fill-opacity:1;fill-rule:nonzero;stroke:none"
           id="path1015"
           inkscape:connector-curvature="0" /><path
           d="m 524.664,370.443 c -18.787,9.014 -10.495,-10.571 4.068,-16.225 14.027,-5.412 11.245,8.863 -4.068,16.225"
           style="fill:#231f20;fill-opacity:1;fill-rule:nonzero;stroke:none"
           id="path1017"
           inkscape:connector-curvature="0" /><path
           d="m 517.939,428.289 c 3.095,-7.622 22.546,-15.423 18.389,-7.337 -1.685,3.27 -5.05,5.777 -10.395,8.239 -7.058,3.24 -9.224,2.13 -7.994,-0.902"
           style="fill:#231f20;fill-opacity:1;fill-rule:nonzero;stroke:none"
           id="path1019"
           inkscape:connector-curvature="0" /><path
           d="m 540.608,381.679 c 4.053,-9.748 26.292,-18.875 20.674,-7.998 -2.077,4.023 -5.395,6.803 -11.377,9.702 -8.759,4.25 -11.024,2.478 -9.297,-1.704"
           style="fill:#231f20;fill-opacity:1;fill-rule:nonzero;stroke:none"
           id="path1021"
           inkscape:connector-curvature="0" /><path
           d="m 570.264,320.71 c 5.099,-12.18 28.545,-20.986 21.956,-8.18 -2.419,4.706 -7.115,8.627 -13.255,11.469 -8.347,3.864 -10.659,1.371 -8.701,-3.289"
           style="fill:#231f20;fill-opacity:1;fill-rule:nonzero;stroke:none"
           id="path1023"
           inkscape:connector-curvature="0" /><path
           d="m 488.645,493.83 c 1.366,-6.538 20.055,-8.21 5.987,-0.91 -5.095,2.647 -6.226,2.083 -5.987,0.91"
           style="fill:#231f20;fill-opacity:1;fill-rule:nonzero;stroke:none"
           id="path1025"
           inkscape:connector-curvature="0" /><path
           d="m 502.321,466.293 c -7.985,-1.76 19.698,-16.571 13.359,-7.089 -0.547,0.808 -1.055,2.127 -6.128,4.765 -3.867,2.008 -6.358,2.511 -7.231,2.324"
           style="fill:#231f20;fill-opacity:1;fill-rule:nonzero;stroke:none"
           id="path1027"
           inkscape:connector-curvature="0" /><path
           d="m 611.696,237.221 c 12.293,-29.034 38.45,-10.992 9.198,4.392 -8.184,4.287 -12.199,2.713 -9.198,-4.392"
           style="fill:#231f20;fill-opacity:1;fill-rule:nonzero;stroke:none"
           id="path1029"
           inkscape:connector-curvature="0" /><path
           d="m 478.183,518.107 c -0.187,-3.493 12.923,-6.81 5.137,-1.75 -1.876,1.266 -4.695,1.976 -5.137,1.75"
           style="fill:#231f20;fill-opacity:1;fill-rule:nonzero;stroke:none"
           id="path1031"
           inkscape:connector-curvature="0" /><path
           d="m 672.352,125.186 c -8.53,-7.207 22.857,-37.415 22.504,-21.324 -3.544,8.035 -7.52,14.462 -12.704,17.359 -2.462,3.425 -6.653,2.317 -9.8,3.965"
           style="fill:#231f20;fill-opacity:1;fill-rule:nonzero;stroke:none"
           id="path1033"
           inkscape:connector-curvature="0" /><path
           d="m 488.028,521.759 c -0.421,0.962 -3.666,2.387 -2.219,0.751 1.126,-0.519 1.77,-0.701 2.219,-0.751"
           style="fill:#231f20;fill-opacity:1;fill-rule:nonzero;stroke:none"
           id="path1035"
           inkscape:connector-curvature="0" /><path
           d="m 594.053,339.216 c 4.503,-9.113 23.789,-17.194 18.795,-7.687 -3.022,5.718 -4.805,6.631 -10.951,9.734 -5.566,2.805 -10.374,3.108 -7.844,-2.047"
           style="fill:#231f20;fill-opacity:1;fill-rule:nonzero;stroke:none"
           id="path1037"
           inkscape:connector-curvature="0" /><path
           d="m 523.049,468.778 c 2.395,-7.511 20.575,-8.343 5.887,-0.703 -5.321,2.768 -6.31,2.049 -5.887,0.703"
           style="fill:#231f20;fill-opacity:1;fill-rule:nonzero;stroke:none"
           id="path1039"
           inkscape:connector-curvature="0" /><path
           d="m 563.647,396.286 c -7.663,-4.026 25.297,-21.936 15.824,-8.513 -0.816,1.137 -1.743,3.059 -7.731,6.204 -4.558,2.396 -7.257,2.734 -8.093,2.309"
           style="fill:#231f20;fill-opacity:1;fill-rule:nonzero;stroke:none"
           id="path1041"
           inkscape:connector-curvature="0" /><path
           d="m 691.465,167.153 c 14.261,-28.672 31.994,-8.402 6.389,4.927 -6.376,3.324 -9.818,1.999 -6.389,-4.927"
           style="fill:#231f20;fill-opacity:1;fill-rule:nonzero;stroke:none"
           id="path1043"
           inkscape:connector-curvature="0" /><path
           d="m 548.931,434.66 c -11.764,6.632 -8.77,-1.706 -1.535,-5.585 8.713,-4.651 11.063,0.197 1.535,5.585"
           style="fill:#231f20;fill-opacity:1;fill-rule:nonzero;stroke:none"
           id="path1045"
           inkscape:connector-curvature="0" /><path
           d="m 792.724,15.005 c -2.264,3.49 -5.409,6.711 -11.906,9.91 -4.797,2.35 -6.787,1.236 -6.363,-1.521 1.777,-11.377 12.168,-19.985 18.269,-21.354 z"
           style="fill:#231f20;fill-opacity:1;fill-rule:nonzero;stroke:none"
           id="path1047"
           inkscape:connector-curvature="0" /><path
           d="m 640.513,271.357 c -10.558,4.575 -6.194,-8.508 4.282,-15.021 14.824,-9.187 12.214,7.861 -4.282,15.021"
           style="fill:#231f20;fill-opacity:1;fill-rule:nonzero;stroke:none"
           id="path1049"
           inkscape:connector-curvature="0" /><path
           d="m 513.104,495.149 c -8.919,4.578 -0.414,-4.586 3.877,-4.102 1.347,0.159 -0.479,2.352 -3.877,4.102"
           style="fill:#231f20;fill-opacity:1;fill-rule:nonzero;stroke:none"
           id="path1051"
           inkscape:connector-curvature="0" /><path
           d="m 500.736,517.489 c -5.873,3.156 -3.894,-0.396 0.413,-1.965 1.732,-0.628 2.988,-0.049 -0.413,1.965"
           style="fill:#231f20;fill-opacity:1;fill-rule:nonzero;stroke:none"
           id="path1053"
           inkscape:connector-curvature="0" /><path
           d="m 583.383,404.329 c 1.357,-5.921 19.69,-14.238 12.859,-5.551 -0.715,0.91 -2.023,2.395 -5.581,4.379 -4.39,2.445 -7.711,3.111 -7.278,1.172"
           style="fill:#231f20;fill-opacity:1;fill-rule:nonzero;stroke:none"
           id="path1055"
           inkscape:connector-curvature="0" /><path
           d="m 653.682,291.842 c 5.717,-10.404 22.107,-15.55 16.024,-6.108 -1.478,2.287 -4.095,5.524 -10.301,8.583 -5.257,2.583 -8.447,2.477 -5.723,-2.475"
           style="fill:#231f20;fill-opacity:1;fill-rule:nonzero;stroke:none"
           id="path1057"
           inkscape:connector-curvature="0" /><path
           d="m 560.5,442.633 c -0.128,-0.909 1.416,-3.277 3.353,-4.707 2.663,-1.893 7.63,-3.649 8.227,-2.96 0.92,2.719 -9.144,8.726 -11.58,7.667"
           style="fill:#231f20;fill-opacity:1;fill-rule:nonzero;stroke:none"
           id="path1059"
           inkscape:connector-curvature="0" /><path
           d="m 542.156,472.738 c 1.051,-4.639 14.062,-7.437 5.253,-1.693 -2.134,1.455 -4.929,2.044 -5.253,1.693"
           style="fill:#231f20;fill-opacity:1;fill-rule:nonzero;stroke:none"
           id="path1061"
           inkscape:connector-curvature="0" /><path
           d="m 792.724,87.889 c -1.274,0.853 -2.768,1.713 -4.549,2.587 -4.185,2.049 -5.902,1.293 -5.493,-0.843 1.128,-5.91 5.615,-11.064 10.042,-14.213 z"
           style="fill:#231f20;fill-opacity:1;fill-rule:nonzero;stroke:none"
           id="path1063"
           inkscape:connector-curvature="0" /><path
           d="m 619.266,356.626 c -8.409,3.731 -5.423,-4.585 2.78,-9.453 11.578,-6.853 10.365,3.603 -2.78,9.453"
           style="fill:#231f20;fill-opacity:1;fill-rule:nonzero;stroke:none"
           id="path1065"
           inkscape:connector-curvature="0" /><path
           d="m 707.31,212.332 c -6.064,-4.116 19.318,-25.601 18.272,-15.326 -3.098,5.416 -6.459,9.857 -10.574,12.085 -2.059,2.396 -5.206,1.955 -7.698,3.241"
           style="fill:#231f20;fill-opacity:1;fill-rule:nonzero;stroke:none"
           id="path1067"
           inkscape:connector-curvature="0" /><path
           d="m 533.129,494.005 c -1.701,5.192 -12.062,4.313 0,0"
           style="fill:#231f20;fill-opacity:1;fill-rule:nonzero;stroke:none"
           id="path1069"
           inkscape:connector-curvature="0" /><path
           d="m 631.148,368.072 c 6.616,-11.061 20.759,-7.923 5.249,0.558 -6.353,3.468 -6.768,1.987 -5.249,-0.558"
           style="fill:#231f20;fill-opacity:1;fill-rule:nonzero;stroke:none"
           id="path1071"
           inkscape:connector-curvature="0" /><path
           d="m 669.781,312.195 c 9.058,-14.796 22.651,-7.518 4.756,1.611 -4.466,2.278 -6.967,2.032 -4.756,-1.611"
           style="fill:#231f20;fill-opacity:1;fill-rule:nonzero;stroke:none"
           id="path1073"
           inkscape:connector-curvature="0" /><path
           d="m 578.431,446.523 c 2.7,-5.122 13.311,-5.803 4.126,-0.49 -3.221,1.865 -4.89,1.958 -4.126,0.49"
           style="fill:#231f20;fill-opacity:1;fill-rule:nonzero;stroke:none"
           id="path1075"
           inkscape:connector-curvature="0" /><path
           d="m 719.693,240.924 c 7.793,-15.772 24.706,-13.75 7.645,-1.267 -4.198,3.214 -7.819,2.806 -7.645,1.267"
           style="fill:#231f20;fill-opacity:1;fill-rule:nonzero;stroke:none"
           id="path1077"
           inkscape:connector-curvature="0" /><path
           d="m 792.724,141.729 c -2.881,1.17 -4.034,0.596 -3.689,-0.928 0.563,-2.481 1.939,-4.839 3.689,-6.908 z"
           style="fill:#231f20;fill-opacity:1;fill-rule:nonzero;stroke:none"
           id="path1079"
           inkscape:connector-curvature="0" /><path
           d="m 602.388,413.344 c -4.888,-0.29 9.047,-10.454 10.117,-7.345 -1.224,2.059 -2.798,3.894 -5.294,5.19 -1.033,1.033 -3.304,1.388 -4.823,2.155"
           style="fill:#231f20;fill-opacity:1;fill-rule:nonzero;stroke:none"
           id="path1081"
           inkscape:connector-curvature="0" /><path
           d="m 545.803,498.87 c -5.843,3.13 -3.282,-0.617 0.828,-2.104 1.651,-0.599 2.604,0.094 -0.828,2.104"
           style="fill:#231f20;fill-opacity:1;fill-rule:nonzero;stroke:none"
           id="path1083"
           inkscape:connector-curvature="0" /><path
           d="m 562.666,474.63 c -6.391,3.448 -3.353,-0.992 1.069,-2.538 1.778,-0.621 2.694,0.294 -1.069,2.538"
           style="fill:#231f20;fill-opacity:1;fill-rule:nonzero;stroke:none"
           id="path1085"
           inkscape:connector-curvature="0" /><path
           d="m 552.748,499.114 c 0.207,-0.292 0.419,-0.586 0.631,-0.876 1.626,-0.798 1.991,-0.743 1.099,0.158 -0.58,0.235 -1.153,0.479 -1.73,0.718"
           style="fill:#231f20;fill-opacity:1;fill-rule:nonzero;stroke:none"
           id="path1087"
           inkscape:connector-curvature="0" /><path
           d="m 645.498,380.637 c 3.718,-7.76 17.228,-9.245 5.788,-1.58 -2.804,1.954 -5.698,2.268 -5.788,1.58"
           style="fill:#231f20;fill-opacity:1;fill-rule:nonzero;stroke:none"
           id="path1089"
           inkscape:connector-curvature="0" /><path
           d="m 616.996,419.153 c 3.498,-5.833 13.714,-5.949 4.017,-0.313 -3.403,1.976 -5.011,1.979 -4.017,0.313"
           style="fill:#231f20;fill-opacity:1;fill-rule:nonzero;stroke:none"
           id="path1091"
           inkscape:connector-curvature="0" /><path
           d="m 731.724,264.835 c 8.073,-12.47 19.106,-7.826 4.556,1.134 -5.094,3.126 -6.833,2.391 -4.556,-1.134"
           style="fill:#231f20;fill-opacity:1;fill-rule:nonzero;stroke:none"
           id="path1093"
           inkscape:connector-curvature="0" /><path
           d="m 686.759,330.617 c -12.765,6.682 5.199,-11.964 8.115,-8.29 0.897,1.156 -3.249,5.729 -8.115,8.29"
           style="fill:#231f20;fill-opacity:1;fill-rule:nonzero;stroke:none"
           id="path1095"
           inkscape:connector-curvature="0" /><path
           d="m 576.669,477.919 c -6.085,3.272 -3.003,-0.897 1.152,-2.376 1.668,-0.597 2.45,0.253 -1.152,2.376"
           style="fill:#231f20;fill-opacity:1;fill-rule:nonzero;stroke:none"
           id="path1097"
           inkscape:connector-curvature="0" /><path
           d="m 596.942,450.907 c -6.674,3.616 -3.002,-1.35 1.473,-2.878 1.796,-0.618 2.501,0.506 -1.473,2.878"
           style="fill:#231f20;fill-opacity:1;fill-rule:nonzero;stroke:none"
           id="path1099"
           inkscape:connector-curvature="0" /></g></g></g></svg>