<svg width="1000.00256" height="200" xmlns="http://www.w3.org/2000/svg">

 <g id="imagebot_2">
  <path d="M 5.6255 20.907 L 5.6255 39.093" transform="translate(-0.310864 -15.907) matrix(-1 0 0 1 60 0)" stroke-width="10" stroke-linejoin="round" stroke-linecap="round" stroke="#ffffff" fill="none" id="imagebot_6"/>
  <path d="M 55.186 31.209 L 4.081 31.209" transform="translate(-0.310864 -15.907) matrix(0.9539 0 0 0.92817 1.732 1.0331)" stroke-width="10.628" stroke-linejoin="round" stroke-linecap="round" stroke="#ffffff" fill="none" id="imagebot_5"/>
  <path d="M 5.6255 20.907 L 5.6255 39.093" transform="rotate(90 26.647 91.6097) matrix(-1 0 0 1 32.2725 61.6097)" stroke-width="5" stroke-linejoin="round" stroke-linecap="round" stroke="#000000" fill="none" id="imagebot_3"/>
  <title>imagebot_2</title>
  <path d="M 5.6255 20.907 L 5.6255 39.093" transform="rotate(90 58.9029 91.6097) matrix(-1 0 0 1 64.5284 61.6097)" stroke-width="5" stroke-linejoin="round" stroke-linecap="round" stroke="#000000" fill="none" id="imagebot_8"/>
  <path d="M 5.6255 20.907 L 5.6255 39.093" transform="rotate(90 92.1828 91.6097) matrix(-1 0 0 1 97.8083 61.6097)" stroke-width="5" stroke-linejoin="round" stroke-linecap="round" stroke="#000000" fill="none" id="imagebot_9"/>
  <path d="M 5.6255 20.907 L 5.6255 39.093" transform="rotate(90 123.927 91.6097) matrix(-1 0 0 1 129.552 61.6097)" stroke-width="5" stroke-linejoin="round" stroke-linecap="round" stroke="#000000" fill="none" id="imagebot_10"/>
  <path d="M 5.6255 20.907 L 5.6255 39.093" transform="rotate(90 157.719 91.6097) matrix(-1 0 0 1 163.344 61.6097)" stroke-width="5" stroke-linejoin="round" stroke-linecap="round" stroke="#000000" fill="none" id="imagebot_11"/>
  <path d="M 5.6255 20.907 L 5.6255 39.093" transform="rotate(90 190.487 91.6097) matrix(-1 0 0 1 196.112 61.6097)" stroke-width="5" stroke-linejoin="round" stroke-linecap="round" stroke="#000000" fill="none" id="imagebot_12"/>
  <path d="M 5.6255 20.907 L 5.6255 39.093" transform="rotate(90 224.79 91.6097) matrix(-1 0 0 1 230.416 61.6097)" stroke-width="5" stroke-linejoin="round" stroke-linecap="round" stroke="#000000" fill="none" id="imagebot_13"/>
  <path d="M 5.6255 20.907 L 5.6255 39.093" transform="rotate(90 262.678 91.6097) matrix(-1 0 0 1 268.304 61.6097)" stroke-width="5" stroke-linejoin="round" stroke-linecap="round" stroke="#000000" fill="none" id="imagebot_14"/>
  <path d="M 5.6255 20.907 L 5.6255 39.093" transform="rotate(90 298.006 91.6097) matrix(-1 0 0 1 303.632 61.6097)" stroke-width="5" stroke-linejoin="round" stroke-linecap="round" stroke="#000000" fill="none" id="imagebot_15"/>
  <path d="M 5.6255 20.907 L 5.6255 39.093" transform="rotate(90 329.75 91.6097) matrix(-1 0 0 1 335.376 61.6097)" stroke-width="5" stroke-linejoin="round" stroke-linecap="round" stroke="#000000" fill="none" id="imagebot_17"/>
  <path d="M 5.6255 20.907 L 5.6255 39.093" transform="rotate(90 364.566 91.6097) matrix(-1 0 0 1 370.192 61.6097)" stroke-width="5" stroke-linejoin="round" stroke-linecap="round" stroke="#000000" fill="none" id="imagebot_18"/>
  <path d="M 5.6255 20.907 L 5.6255 39.093" transform="rotate(90 398.87 91.6097) matrix(-1 0 0 1 404.496 61.6097)" stroke-width="5" stroke-linejoin="round" stroke-linecap="round" stroke="#000000" fill="none" id="imagebot_19"/>
  <path d="M 5.6255 20.907 L 5.6255 39.093" transform="rotate(90 434.198 91.6097) matrix(-1 0 0 1 439.823 61.6097)" stroke-width="5" stroke-linejoin="round" stroke-linecap="round" stroke="#000000" fill="none" id="imagebot_20"/>
  <path d="M 5.6255 20.907 L 5.6255 39.093" transform="rotate(90 470.038 91.6097) matrix(-1 0 0 1 475.663 61.6097)" stroke-width="5" stroke-linejoin="round" stroke-linecap="round" stroke="#000000" fill="none" id="imagebot_21"/>
 </g>
 <metadata>image/svg+xmlOpenclipart</metadata>
</svg>